<svg version="1.1" id="Layer_1" xmlns="http://www.w3.org/2000/svg" xmlns:xlink="http://www.w3.org/1999/xlink" x="0px" y="0px"
	 width="100%" viewBox="0 0 512 512" enable-background="new 0 0 512 512" xml:space="preserve">
<path fill="#F8F9F9" opacity="1.000000" stroke="none" 
	d="
M323.000000,513.000000 
	C215.359482,513.000000 108.218956,513.000000 1.039217,513.000000 
	C1.039217,342.401123 1.039217,171.802231 1.039217,1.101671 
	C171.557190,1.101671 342.114471,1.101671 512.835876,1.101671 
	C512.835876,171.666534 512.835876,342.333252 512.835876,513.000000 
	C449.802216,513.000000 386.651093,513.000000 323.000000,513.000000 
M229.792877,310.199585 
	C229.792877,310.199585 229.457367,310.065704 229.406799,309.788422 
	C229.300217,309.606293 229.141647,309.522308 228.795395,309.202240 
	C228.795395,309.202240 228.460724,309.067657 228.449936,308.830627 
	C228.449936,308.830627 228.041092,308.735321 227.670624,308.143494 
	C226.240402,307.029297 224.810165,305.915100 223.136032,304.282074 
	C222.797729,304.124817 222.459427,303.967529 222.074509,303.924805 
	C222.074509,303.924805 222.177322,303.856110 221.980148,303.353088 
	C221.657074,303.222626 221.334000,303.092163 220.721924,302.535156 
	C220.275665,302.293335 219.829407,302.051514 219.204697,301.344299 
	C218.773331,301.113098 218.341980,300.881866 217.440536,300.101349 
	C202.001114,291.458984 189.762009,279.546631 180.758362,264.300873 
	C180.004272,263.023956 179.086731,261.727478 177.944427,260.817566 
	C174.461029,258.042999 171.087616,254.959198 167.186035,252.928116 
	C163.158035,250.831207 158.928207,252.091049 155.780640,255.354263 
	C152.880966,258.360443 153.154633,262.012238 154.875854,265.570312 
	C155.959106,267.809662 156.959137,270.154358 158.428467,272.130615 
	C164.876480,280.803192 171.549194,289.308777 177.992310,297.984894 
	C180.132996,300.867462 181.830719,304.079010 183.730942,307.140137 
	C183.292068,307.585297 182.853180,308.030457 182.414291,308.475616 
	C180.974411,308.062836 179.150452,308.075012 178.152542,307.173187 
	C164.467453,294.805420 151.445343,281.599976 146.296738,263.378754 
	C143.440567,253.270645 143.135025,242.405853 142.048172,231.844223 
	C141.026413,221.915146 140.717575,211.911713 139.652481,201.988495 
	C139.011017,196.012131 134.754776,192.137695 130.051498,192.195496 
	C126.152740,192.243393 123.198265,195.567993 123.137367,201.050308 
	C122.941559,218.678360 121.979446,236.381332 123.199799,253.924164 
	C125.674278,289.495758 140.285599,318.706360 170.762497,339.092255 
	C179.399475,344.869476 186.904419,352.339111 195.014893,359.560120 
	C195.280960,359.777252 195.547012,359.994415 195.933044,360.082245 
	C195.933044,360.082245 195.777390,360.165192 195.884003,360.783478 
	C196.469452,361.621063 197.054916,362.458679 197.977768,363.022247 
	C197.977768,363.022247 197.652542,363.310669 197.702057,363.861206 
	C197.950089,364.340332 198.198120,364.819489 198.518387,365.411346 
	C198.518387,365.411346 198.603439,365.514709 198.971039,366.233490 
	C206.063019,366.403534 213.154190,366.649811 220.247177,366.723602 
	C228.480148,366.809296 236.714706,366.743591 246.220520,366.743591 
	C245.051071,355.711151 243.955444,345.375092 242.865845,334.341736 
	C242.690186,333.918365 242.514526,333.494995 242.402054,332.405121 
	C241.870712,330.955811 241.339371,329.506470 240.716507,327.335754 
	C240.487183,326.909912 240.257843,326.484100 240.078979,325.442719 
	C239.135986,323.800079 238.192993,322.157440 237.214523,320.204834 
	C237.214523,320.204834 236.972443,320.008057 236.894028,319.377441 
	C236.355743,318.740662 235.817444,318.103851 235.233200,317.175049 
	C235.233200,317.175049 234.991867,317.004395 234.927170,316.413818 
	C234.407593,315.840179 233.888016,315.266541 233.294556,314.696869 
	C233.294556,314.696869 233.304321,314.623535 233.241333,314.189728 
	C233.113525,313.897461 232.893234,313.719971 232.492874,313.574158 
	C232.492874,313.574158 232.419022,313.478668 232.263474,312.987213 
	C231.791336,312.501923 231.319199,312.016602 230.714706,311.186859 
	C230.714706,311.186859 230.373047,311.047516 230.371902,310.779175 
	C230.281448,310.593872 230.133698,310.512238 229.792877,310.199585 
M235.996185,282.006012 
	C235.996185,282.006012 236.007568,282.012726 236.332611,282.500763 
	C236.881287,282.637177 237.429962,282.773590 238.598526,283.246277 
	C239.966827,283.528320 241.335144,283.810364 243.141159,284.546112 
	C244.308685,284.733795 245.476196,284.921509 247.413269,285.499847 
	C247.982269,285.531158 248.551285,285.562469 249.897476,285.848969 
	C254.885727,285.749512 259.873993,285.650055 265.617584,285.605316 
	C266.084045,285.426331 266.550507,285.247375 267.594025,285.244110 
	C268.366180,285.041321 269.138336,284.838531 270.665985,284.627838 
	C271.117126,284.412506 271.568268,284.197205 272.628876,284.097015 
	C274.128967,283.429871 275.629089,282.762695 277.051086,282.066101 
	C277.051086,282.066101 277.045502,282.149384 277.799438,282.124939 
	C280.261505,280.801666 282.723602,279.478394 285.087830,278.108032 
	C285.087830,278.108032 285.120178,278.211670 285.769775,278.142761 
	C286.614868,277.522461 287.459991,276.902161 288.186523,276.251495 
	C288.186523,276.251495 288.241028,276.361084 288.884125,276.263702 
	C289.687683,275.584229 290.491241,274.904755 291.160675,274.207947 
	C291.160675,274.207947 291.213959,274.332275 291.790436,274.225952 
	C292.194946,273.830902 292.599487,273.435883 293.019745,273.021393 
	C293.019745,273.021393 293.042328,273.010651 293.678589,272.822205 
	C296.578735,269.629486 299.478882,266.436768 302.237213,263.200073 
	C302.237213,263.200073 302.280243,263.342194 302.876923,263.067841 
	C303.698273,261.794037 304.519653,260.520233 305.043091,259.129517 
	C305.043091,259.129517 305.323517,259.283722 305.877380,258.966919 
	C306.586609,257.642303 307.295837,256.317719 308.223053,254.822342 
	C308.223053,254.822342 308.197449,254.546600 308.766510,254.101120 
	C319.891876,231.867249 316.852448,210.172333 306.201569,188.098984 
	C305.567078,186.957779 304.932587,185.816574 304.187531,183.945007 
	C300.859680,177.463028 297.531830,170.981049 294.203613,164.181625 
	C294.203613,164.181625 293.942932,164.000473 293.906708,163.455032 
	C293.647675,163.231583 293.388672,163.008148 293.197510,162.783112 
	C293.197510,162.783112 293.243256,162.732956 293.204407,162.058334 
	C292.224945,160.350342 291.245483,158.642349 290.162537,156.316437 
	C289.810211,155.829895 289.457855,155.343353 289.077393,154.945999 
	C289.077393,154.945999 289.170898,154.947891 289.117523,154.336746 
	C288.770599,153.858032 288.423676,153.379318 288.033936,152.974457 
	C288.033936,152.974457 288.118134,152.960236 288.077179,152.360291 
	C287.731689,151.890518 287.386230,151.420761 287.001862,151.001099 
	C287.001862,151.001099 287.052124,150.961838 286.955383,150.271286 
	C285.672638,148.135147 284.389893,145.999008 283.077423,143.946945 
	C283.077423,143.946945 283.166534,143.950790 283.124298,143.334900 
	C282.774536,142.855515 282.424805,142.376144 282.038544,141.970001 
	C282.038544,141.970001 282.120239,141.965561 282.081787,141.361252 
	C281.733917,140.885605 281.386047,140.409958 280.999390,139.987045 
	C280.999390,139.987045 281.064301,139.978607 281.006866,139.415680 
	C280.733276,139.185318 280.459686,138.954941 280.190277,138.881668 
	C280.190277,138.881668 280.335480,138.821625 280.243835,138.100723 
	C272.619812,124.053810 264.995758,110.006905 256.899536,95.089973 
	C252.805496,102.944397 249.229828,109.804344 245.677673,116.761230 
	C245.677673,116.761230 245.766571,116.715965 245.243973,116.917732 
	C245.140381,117.268402 245.036789,117.619072 245.000153,117.991638 
	C245.000153,117.991638 244.951920,117.940277 244.457993,118.285446 
	C244.269974,118.845764 244.081970,119.406082 243.977936,119.981369 
	C243.977936,119.981369 243.926025,119.913651 243.367676,120.276497 
	C242.837326,121.489937 242.306992,122.703377 241.912354,123.939690 
	C241.912354,123.939690 241.906219,123.802200 241.401337,124.004311 
	C241.248047,124.327827 241.094757,124.651344 240.989914,125.006721 
	C240.989914,125.006721 240.967575,124.953285 240.384399,125.186256 
	C240.247574,125.785683 240.110733,126.385117 240.003143,126.994499 
	C240.003143,126.994499 239.979568,126.971336 239.499695,127.323425 
	C239.305389,127.874687 239.111069,128.425949 238.989319,128.984192 
	C238.989319,128.984192 238.952164,128.921463 238.458099,129.278351 
	C238.266724,129.846054 238.075333,130.413757 237.963089,130.970703 
	C237.963089,130.970703 237.939453,130.894409 237.413605,131.226471 
	C237.186066,131.799515 236.958542,132.372559 236.189331,133.316208 
	C235.109650,135.530106 234.029968,137.743988 232.443314,140.253296 
	C232.250687,140.795471 232.058060,141.337631 231.332901,142.266968 
	C230.847031,143.484863 230.361160,144.702744 229.946747,145.983948 
	C229.946747,145.983948 229.929718,145.889999 229.393051,146.209656 
	C229.202484,146.792267 229.011932,147.374878 228.940033,147.947357 
	C228.940033,147.947357 228.907959,147.832657 228.382965,148.012558 
	C228.255463,148.348740 228.127960,148.684921 227.469009,149.478546 
	C226.404251,151.607208 225.339493,153.735886 223.900711,156.223450 
	C223.608551,156.844772 223.316406,157.466095 222.511963,158.523254 
	C219.974472,163.617889 217.436981,168.712509 214.406418,174.150497 
	C214.194901,174.701721 213.983383,175.252930 213.325317,176.183624 
	C213.156235,176.736206 212.987167,177.288773 212.359283,178.203278 
	C212.180054,178.750473 212.000824,179.297653 211.355591,180.209030 
	C211.192978,180.767624 211.030350,181.326233 210.409637,182.253738 
	C210.238586,182.805756 210.067520,183.357773 209.448349,184.263916 
	C209.241394,184.791168 209.034454,185.318405 208.254318,186.271988 
	C206.451202,191.165375 204.648071,196.058762 202.318817,201.443008 
	C201.494247,205.162888 200.669678,208.882782 199.452484,212.947342 
	C199.387207,213.277145 199.321930,213.606964 199.043457,214.765121 
	C198.957077,216.188400 198.870682,217.611664 198.427689,219.775497 
	C197.199631,231.586395 199.083435,242.795517 205.159271,253.846497 
	C206.737839,255.981079 208.316406,258.115662 209.957733,260.939484 
	C213.587479,264.996948 217.217224,269.054413 220.873199,273.093079 
	C220.873199,273.093079 220.901031,273.095032 221.059296,273.581482 
	C221.353607,273.732056 221.647919,273.882629 222.320404,274.591370 
	C225.533524,276.406769 228.746628,278.222168 231.990921,279.999512 
	C231.990921,279.999512 231.971085,280.041504 232.275986,280.559540 
	C232.842133,280.712830 233.408279,280.866119 233.995026,281.003021 
	C233.995026,281.003021 233.991257,281.028381 234.302673,281.536987 
	C234.862976,281.691742 235.423264,281.846466 235.996185,282.006012 
M402.760773,431.156982 
	C402.483307,424.776489 402.205841,418.395966 401.963440,411.300232 
	C399.598969,408.930481 397.571381,405.222839 394.786774,404.521698 
	C391.112518,403.596497 386.844360,405.029938 382.340088,405.500763 
	C382.340088,401.700256 382.340088,396.939880 382.340088,392.108459 
	C379.340302,392.108459 376.901031,392.108459 374.204376,392.108459 
	C374.204376,406.364655 374.204376,420.417358 374.204376,434.670959 
	C376.937988,434.670959 379.377594,434.670959 382.439392,434.670959 
	C382.439392,429.261597 382.395996,423.965637 382.453644,418.670746 
	C382.496796,414.709351 384.061615,411.736786 388.425354,411.529724 
	C392.757660,411.324158 393.975464,414.391693 394.222504,418.922577 
	C394.222504,424.028778 394.222504,429.135010 394.222504,434.838715 
	C397.061646,434.713806 399.487000,434.607086 402.423889,434.527252 
	C402.470734,433.712952 402.517578,432.898651 402.760773,431.156982 
M246.814240,434.781982 
	C248.234070,434.717102 249.653900,434.652191 251.324478,434.575836 
	C251.324478,426.048187 251.395889,417.924530 251.265503,409.804108 
	C251.238754,408.138397 250.572372,405.116608 250.002502,405.068481 
	C247.826370,404.884705 245.569214,405.660339 242.603088,406.540253 
	C233.123077,401.690002 225.265686,404.048096 221.554016,412.857330 
	C218.871399,419.224182 220.285553,427.111084 224.873337,431.369598 
	C230.116669,436.236633 234.081665,436.557220 241.585510,432.793884 
	C241.932037,432.620117 242.518875,432.925476 242.923294,433.569458 
	C243.280899,433.901154 243.638489,434.232880 244.646133,434.811798 
	C245.098953,434.736176 245.551758,434.660553 246.814240,434.781982 
M269.762634,341.689148 
	C269.610535,343.142822 269.458435,344.596497 269.116486,346.770386 
	C269.124908,347.512695 269.133362,348.254974 268.904236,349.782074 
	C268.904236,355.375824 268.904236,360.969604 268.904236,366.795563 
	C281.972137,366.795563 294.620605,366.460510 307.237427,366.946808 
	C312.946381,367.166870 316.735199,365.831146 318.856445,359.956451 
	C318.856445,359.956451 318.977753,359.522003 319.222504,359.488068 
	C319.222504,359.488068 319.281311,359.055267 319.863098,358.607452 
	C328.811340,351.192108 337.369171,343.232666 346.788361,336.473602 
	C366.995758,321.972992 379.976746,302.864594 386.494110,278.968719 
	C392.144348,258.252289 392.283783,237.179520 391.558533,216.001251 
	C391.364746,210.343262 391.376984,204.624847 390.465912,199.070099 
	C390.082581,196.732880 387.934509,193.609711 385.887787,192.918182 
	C383.772034,192.203323 379.892792,193.209625 378.424164,194.893051 
	C376.188965,197.455215 374.473328,201.153442 374.109100,204.538361 
	C372.970001,215.124649 371.840851,225.802383 372.018738,236.422699 
	C372.509613,265.725952 358.192566,287.406311 337.576141,306.111420 
	C336.847504,306.772522 336.023041,307.558472 335.128723,307.749237 
	C333.971832,307.996002 332.209961,308.155548 331.615204,307.513184 
	C331.022919,306.873505 331.092804,304.885956 331.671112,304.027405 
	C333.896698,300.723206 336.525116,297.694000 338.853027,294.454285 
	C345.440216,285.287262 352.173309,276.212036 358.384674,266.794464 
	C360.791931,263.144592 361.751343,258.671143 357.791809,254.924103 
	C354.052338,251.385315 349.333832,250.515427 344.586517,254.118256 
	C339.502899,257.976349 334.330322,262.428802 331.003143,267.751190 
	C322.356415,281.583130 310.437775,291.429993 296.876312,299.971375 
	C283.814819,308.197876 273.948914,319.189636 270.797150,335.260986 
	C270.680145,335.467987 270.718567,335.640259 270.545563,336.594177 
	C270.375793,338.067383 270.206024,339.540619 269.762634,341.689148 
M112.796692,424.192291 
	C111.503578,427.562347 110.210464,430.932404 108.912895,434.314056 
	C114.886070,435.791443 119.308914,435.247986 120.480659,428.258911 
	C120.631287,427.360504 122.917198,426.156952 124.155769,426.220917 
	C129.051315,426.473846 133.924606,427.167725 138.800171,427.748230 
	C138.942932,427.765198 138.999908,428.349274 139.129135,428.655365 
	C142.174072,435.867920 142.465591,436.016602 150.584488,434.327057 
	C145.387970,421.159607 140.351242,407.974487 134.816635,395.001801 
	C134.238907,393.647675 130.710449,393.033539 128.557129,393.047089 
	C127.041054,393.056610 124.720673,394.364746 124.156052,395.688660 
	C120.246239,404.856506 116.702805,414.180634 112.796692,424.192291 
M182.119476,430.496979 
	C182.119476,421.882141 182.119476,413.267303 182.119476,404.046387 
	C178.477463,404.515991 175.414978,404.910889 171.032974,405.475891 
	C165.222427,402.418274 159.769806,403.115448 154.930466,408.476013 
	C150.134964,413.787964 149.507614,422.853088 153.514145,428.941254 
	C157.681885,435.274384 162.820221,436.349915 173.578293,432.957458 
	C173.578293,436.532959 173.679276,440.006287 173.549316,443.470947 
	C173.424683,446.793579 175.372421,447.479065 178.003922,447.103821 
	C179.383423,446.907074 180.684204,446.158447 182.120392,445.621735 
	C182.120392,440.805725 182.120392,436.150604 182.119476,430.496979 
M291.254669,435.688354 
	C297.336182,434.834076 302.731812,432.724518 306.879120,427.234955 
	C304.608826,425.525696 302.565521,423.987335 300.618591,422.521545 
	C293.447968,428.290314 286.496704,428.496765 281.477600,423.384552 
	C277.035522,418.859894 276.690552,410.530853 280.736053,405.478363 
	C285.496368,399.533112 291.742645,399.371368 300.912262,405.172760 
	C302.749664,403.544128 304.666046,401.845459 306.580811,400.148224 
	C298.949280,391.587952 288.345856,389.856964 279.133026,395.276794 
	C271.340454,399.860992 267.250244,409.455811 269.208679,418.557220 
	C271.347748,428.498322 278.879181,434.594574 291.254669,435.688354 
M339.176575,434.650818 
	C339.176575,424.662201 339.176575,414.673615 339.176575,403.828308 
	C336.222260,404.483124 333.348938,405.119995 330.475586,405.756866 
	C328.940063,405.800049 327.262482,404.578705 325.396576,404.114746 
	C319.968903,402.765198 313.680450,405.866913 310.665283,411.077667 
	C307.257965,416.966125 308.001526,425.844574 312.304504,430.649963 
	C316.609741,435.457947 322.250854,436.702667 328.110138,434.224304 
	C329.212982,433.757812 330.485352,433.227875 331.604187,433.360809 
	C333.867218,433.629761 336.078613,434.333252 339.176575,434.650818 
M189.272186,404.438324 
	C188.759033,404.964294 187.802628,405.488159 187.800140,406.016541 
	C187.769409,412.507660 187.440002,419.041656 188.060211,425.480530 
	C188.864059,433.825989 196.656097,437.786591 204.322845,434.333252 
	C205.501144,433.802521 206.918732,433.284424 208.129379,433.452820 
	C210.594086,433.795563 212.993103,434.610748 215.722809,435.308929 
	C215.722809,424.256226 215.722809,414.379486 215.722809,404.518738 
	C212.871811,404.518738 210.458725,404.518738 207.659775,404.518738 
	C207.659775,409.965881 207.722092,415.097290 207.641190,420.226440 
	C207.569077,424.798431 204.902969,428.209473 201.607513,427.877777 
	C197.167007,427.430878 196.010666,424.401001 196.068268,420.437805 
	C196.144882,415.164917 196.087173,409.890137 196.087173,404.430420 
	C193.700333,404.430420 191.903366,404.430420 189.272186,404.438324 
M365.917175,411.833069 
	C366.841339,410.757446 367.765503,409.681793 368.679718,408.617767 
	C363.852203,404.219208 359.373535,402.741302 353.850555,403.944366 
	C349.367615,404.920837 345.711334,407.134216 345.085693,412.192627 
	C344.463715,417.220886 347.726349,419.785522 351.765869,421.506805 
	C354.040161,422.475830 356.562439,422.859558 358.846588,423.810516 
	C359.858307,424.231720 360.556976,425.404877 361.397766,426.236664 
	C360.403748,426.945618 359.296448,428.372009 358.435883,428.236115 
	C355.169037,427.720093 351.981995,426.698639 347.844635,425.627991 
	C347.072845,426.281311 345.348114,427.741272 343.634430,429.191895 
	C348.708313,435.986389 360.225708,437.709290 366.442352,432.773712 
	C371.418121,428.823303 370.826996,421.188049 365.172241,418.195435 
	C363.147919,417.124115 360.794373,416.691284 358.634979,415.853882 
	C356.758636,415.126190 354.944244,414.238831 352.819336,413.296478 
	C356.369598,409.847626 357.236389,409.823944 361.106750,411.607544 
	C362.365112,412.187439 363.929596,412.103149 365.917175,411.833069 
M355.229401,222.754654 
	C354.901001,227.564133 354.552216,232.372314 354.248627,237.183350 
	C353.697449,245.918808 354.470184,247.007645 363.581482,249.992111 
	C364.561768,234.643127 365.533569,219.426682 366.522583,203.941193 
	C361.044617,204.441452 358.620697,207.321960 357.451721,211.130524 
	C356.387970,214.596191 356.002380,218.269974 355.229401,222.754654 
M149.272858,204.144241 
	C148.678955,205.203430 147.530823,206.288406 147.578735,207.317719 
	C147.965576,215.628693 148.529861,223.932693 149.136383,232.231766 
	C149.568222,238.140808 150.149338,244.038956 150.720856,250.595932 
	C154.255783,248.564606 157.185623,246.880997 160.626083,244.903961 
	C159.432632,234.154175 158.684769,223.343842 156.776093,212.742477 
	C156.213547,209.617920 152.368042,207.084412 149.272858,204.144241 
z"/>
<path fill="#07225A" opacity="1.000000" stroke="none" 
	d="
M269.141785,348.997284 
	C269.133362,348.254974 269.124908,347.512695 269.528015,346.306885 
	C269.971771,344.233551 270.004028,342.623688 270.036255,341.013824 
	C270.206024,339.540619 270.375793,338.067383 270.816223,336.088165 
	C271.163818,335.403595 271.143768,335.236694 271.026733,335.081451 
	C273.948914,319.189636 283.814819,308.197876 296.876312,299.971375 
	C310.437775,291.429993 322.356415,281.583130 331.003143,267.751190 
	C334.330322,262.428802 339.502899,257.976349 344.586517,254.118256 
	C349.333832,250.515427 354.052338,251.385315 357.791809,254.924103 
	C361.751343,258.671143 360.791931,263.144592 358.384674,266.794464 
	C352.173309,276.212036 345.440216,285.287262 338.853027,294.454285 
	C336.525116,297.694000 333.896698,300.723206 331.671112,304.027405 
	C331.092804,304.885956 331.022919,306.873505 331.615204,307.513184 
	C332.209961,308.155548 333.971832,307.996002 335.128723,307.749237 
	C336.023041,307.558472 336.847504,306.772522 337.576141,306.111420 
	C358.192566,287.406311 372.509613,265.725952 372.018738,236.422699 
	C371.840851,225.802383 372.970001,215.124649 374.109100,204.538361 
	C374.473328,201.153442 376.188965,197.455215 378.424164,194.893051 
	C379.892792,193.209625 383.772034,192.203323 385.887787,192.918182 
	C387.934509,193.609711 390.082581,196.732880 390.465912,199.070099 
	C391.376984,204.624847 391.364746,210.343262 391.558533,216.001251 
	C392.283783,237.179520 392.144348,258.252289 386.494110,278.968719 
	C379.976746,302.864594 366.995758,321.972992 346.788361,336.473602 
	C337.369171,343.232666 328.811340,351.192108 319.465546,358.861145 
	C319.067993,359.114868 318.977753,359.522003 318.977753,359.522003 
	C318.977753,359.522003 318.856445,359.956451 318.312927,360.149353 
	C315.289154,361.930481 312.859924,364.788605 310.319916,364.890686 
	C298.238739,365.376038 286.126343,365.021210 274.027618,365.171661 
	C270.651978,365.213623 269.803101,363.841919 269.828644,360.736481 
	C269.860870,356.825562 269.393555,352.910522 269.141785,348.997284 
z"/>
<path fill="#07225A" opacity="1.000000" stroke="none" 
	d="
M223.379913,304.800903 
	C224.810165,305.915100 226.240402,307.029297 227.875854,308.543457 
	C228.081100,308.943451 228.460724,309.067657 228.460724,309.067657 
	C228.460724,309.067657 228.795395,309.202240 228.890442,309.506470 
	C229.091507,309.990601 229.248795,310.075592 229.457367,310.065704 
	C229.457367,310.065704 229.792877,310.199585 229.874878,310.494141 
	C230.042130,310.960999 230.180847,311.047272 230.373047,311.047516 
	C230.373047,311.047516 230.714706,311.186859 230.800720,311.657654 
	C231.397507,312.578552 231.908264,313.028595 232.419022,313.478668 
	C232.419022,313.478668 232.492874,313.574158 232.499969,313.863556 
	C232.772827,314.309814 233.038574,314.466675 233.304321,314.623535 
	C233.304321,314.623535 233.294556,314.696869 233.288269,315.026245 
	C233.851929,315.905212 234.421906,316.454803 234.991867,317.004395 
	C234.991867,317.004395 235.233200,317.175049 235.220123,317.675446 
	C235.795502,318.786591 236.383972,319.397308 236.972443,320.008057 
	C236.972443,320.008057 237.214523,320.204834 237.191193,320.707367 
	C238.121414,322.826019 239.074966,324.442139 240.028519,326.058258 
	C240.257843,326.484100 240.487183,326.909912 240.557007,327.917511 
	C241.044617,330.023376 241.691742,331.547516 242.338867,333.071625 
	C242.514526,333.494995 242.690186,333.918365 242.633484,334.989868 
	C242.958664,343.516815 243.389633,351.407410 244.122894,359.269806 
	C244.538528,363.726532 243.193649,365.310547 238.426056,365.233246 
	C225.156860,365.018219 211.878296,365.380432 198.603439,365.514709 
	C198.603439,365.514709 198.518387,365.411346 198.592529,365.047607 
	C198.328613,364.226135 197.990570,363.768402 197.652542,363.310669 
	C197.652542,363.310669 197.977768,363.022247 197.866486,362.819336 
	C197.095917,361.799377 196.436646,360.982269 195.777390,360.165192 
	C195.777390,360.165192 195.933044,360.082245 195.836090,359.882599 
	C195.468918,359.466187 195.198715,359.249390 194.928528,359.032593 
	C186.904419,352.339111 179.399475,344.869476 170.762497,339.092255 
	C140.285599,318.706360 125.674278,289.495758 123.199799,253.924164 
	C121.979446,236.381332 122.941559,218.678360 123.137367,201.050308 
	C123.198265,195.567993 126.152740,192.243393 130.051498,192.195496 
	C134.754776,192.137695 139.011017,196.012131 139.652481,201.988495 
	C140.717575,211.911713 141.026413,221.915146 142.048172,231.844223 
	C143.135025,242.405853 143.440567,253.270645 146.296738,263.378754 
	C151.445343,281.599976 164.467453,294.805420 178.152542,307.173187 
	C179.150452,308.075012 180.974411,308.062836 182.414291,308.475616 
	C182.853180,308.030457 183.292068,307.585297 183.730942,307.140137 
	C181.830719,304.079010 180.132996,300.867462 177.992310,297.984894 
	C171.549194,289.308777 164.876480,280.803192 158.428467,272.130615 
	C156.959137,270.154358 155.959106,267.809662 154.875854,265.570312 
	C153.154633,262.012238 152.880966,258.360443 155.780640,255.354263 
	C158.928207,252.091049 163.158035,250.831207 167.186035,252.928116 
	C171.087616,254.959198 174.461029,258.042999 177.944427,260.817566 
	C179.086731,261.727478 180.004272,263.023956 180.758362,264.300873 
	C189.762009,279.546631 202.001114,291.458984 217.751938,300.625000 
	C218.503281,301.368958 218.943222,301.589325 219.383148,301.809692 
	C219.829407,302.051514 220.275665,302.293335 220.985352,302.983795 
	C221.558304,303.573669 221.867813,303.714874 222.177322,303.856110 
	C222.177322,303.856110 222.074509,303.924805 222.213196,304.135590 
	C222.694580,304.497894 223.037247,304.649414 223.379913,304.800903 
z"/>
<path fill="#0990DF" opacity="1.000000" stroke="none" 
	d="
M308.197449,254.546600 
	C308.197449,254.546600 308.223053,254.822342 307.807220,255.059265 
	C306.702087,256.625366 306.012817,257.954559 305.323547,259.283722 
	C305.323517,259.283722 305.043091,259.129517 304.843628,259.226379 
	C303.856201,260.662872 303.068207,262.002533 302.280212,263.342194 
	C302.280243,263.342194 302.237213,263.200073 301.968079,263.292603 
	C298.813416,266.593597 295.927856,269.802124 293.042328,273.010651 
	C293.042328,273.010651 293.019745,273.021393 292.698975,273.045868 
	C291.990112,273.490967 291.602020,273.911621 291.213959,274.332275 
	C291.213959,274.332275 291.160675,274.207947 290.887115,274.249634 
	C289.822693,274.981201 289.031860,275.671143 288.241028,276.361084 
	C288.241028,276.361084 288.186523,276.251495 287.939453,276.258850 
	C287.129150,276.489990 286.565887,276.713715 285.996124,276.570496 
	C283.316193,272.118835 280.642822,268.034088 278.125122,263.656982 
	C282.208527,258.247955 286.136261,253.131317 290.331177,247.806396 
	C295.427155,239.730148 299.091705,231.478226 299.415192,221.990494 
	C300.796173,221.045288 302.258240,220.295898 302.726868,219.142761 
	C304.692596,214.305878 306.278046,209.314743 308.227570,204.470581 
	C308.519501,203.745255 310.007782,203.501419 311.007233,203.420197 
	C314.701904,215.221985 315.124847,226.881195 312.967865,238.547165 
	C311.961823,243.988297 309.822876,249.219971 308.197449,254.546600 
z"/>
<path fill="#0E2459" opacity="1.000000" stroke="none" 
	d="
M112.919205,423.823425 
	C116.702805,414.180634 120.246239,404.856506 124.156052,395.688660 
	C124.720673,394.364746 127.041054,393.056610 128.557129,393.047089 
	C130.710449,393.033539 134.238907,393.647675 134.816635,395.001801 
	C140.351242,407.974487 145.387970,421.159607 150.584488,434.327057 
	C142.465591,436.016602 142.174072,435.867920 139.129135,428.655365 
	C138.999908,428.349274 138.942932,427.765198 138.800171,427.748230 
	C133.924606,427.167725 129.051315,426.473846 124.155769,426.220917 
	C122.917198,426.156952 120.631287,427.360504 120.480659,428.258911 
	C119.308914,435.247986 114.886070,435.791443 108.912895,434.314056 
	C110.210464,430.932404 111.503578,427.562347 112.919205,423.823425 
M126.582008,411.073029 
	C125.748619,413.313568 124.915230,415.554077 123.896820,418.292023 
	C128.038940,418.292023 131.530075,418.292023 135.497314,418.292023 
	C133.509613,413.127594 131.702072,408.431244 129.605179,402.983154 
	C128.464218,406.021423 127.650902,408.187256 126.582008,411.073029 
z"/>
<path fill="#0A2055" opacity="1.000000" stroke="none" 
	d="
M182.119934,430.996246 
	C182.120392,436.150604 182.120392,440.805725 182.120392,445.621735 
	C180.684204,446.158447 179.383423,446.907074 178.003922,447.103821 
	C175.372421,447.479065 173.424683,446.793579 173.549316,443.470947 
	C173.679276,440.006287 173.578293,436.532959 173.578293,432.957458 
	C162.820221,436.349915 157.681885,435.274384 153.514145,428.941254 
	C149.507614,422.853088 150.134964,413.787964 154.930466,408.476013 
	C159.769806,403.115448 165.222427,402.418274 171.032974,405.475891 
	C175.414978,404.910889 178.477463,404.515991 182.119476,404.046387 
	C182.119476,413.267303 182.119476,421.882141 182.119934,430.996246 
M170.278763,426.870270 
	C171.430878,425.121033 173.212509,423.500153 173.600815,421.595245 
	C174.351608,417.912018 173.913422,413.611969 169.931503,412.343781 
	C167.507385,411.571747 163.105286,412.449280 161.693787,414.241455 
	C160.021225,416.365082 159.558899,420.627441 160.473877,423.315460 
	C161.731689,427.010681 165.461609,428.357269 170.278763,426.870270 
z"/>
<path fill="#0D2458" opacity="1.000000" stroke="none" 
	d="
M290.839111,435.708954 
	C278.879181,434.594574 271.347748,428.498322 269.208679,418.557220 
	C267.250244,409.455811 271.340454,399.860992 279.133026,395.276794 
	C288.345856,389.856964 298.949280,391.587952 306.580811,400.148224 
	C304.666046,401.845459 302.749664,403.544128 300.912262,405.172760 
	C291.742645,399.371368 285.496368,399.533112 280.736053,405.478363 
	C276.690552,410.530853 277.035522,418.859894 281.477600,423.384552 
	C286.496704,428.496765 293.447968,428.290314 300.618591,422.521545 
	C302.565521,423.987335 304.608826,425.525696 306.879120,427.234955 
	C302.731812,432.724518 297.336182,434.834076 290.839111,435.708954 
z"/>
<path fill="#1CA4E2" opacity="1.000000" stroke="none" 
	d="
M224.274734,155.864548 
	C225.339493,153.735886 226.404251,151.607208 227.956757,149.112793 
	C228.598984,148.442245 228.753479,148.137451 228.907959,147.832657 
	C228.907959,147.832657 228.940033,147.947357 229.163788,147.803436 
	C229.568268,147.069687 229.748993,146.479843 229.929718,145.889999 
	C229.929718,145.889999 229.946747,145.983948 230.193756,145.984161 
	C230.629761,145.990875 230.818756,145.997375 231.316345,146.158722 
	C237.963821,149.645111 244.385971,152.828705 250.624481,156.338684 
	C264.024200,163.877747 276.272461,172.951660 286.764587,184.272186 
	C288.204681,185.825989 289.595917,187.425064 291.048401,189.369965 
	C293.007599,195.671387 297.654846,201.170456 293.709351,207.854523 
	C292.280762,207.138336 291.146484,206.562744 289.967773,205.623047 
	C286.154846,194.309937 278.015869,186.953705 269.254822,180.106140 
	C266.653931,178.073318 264.008057,176.092239 261.486969,173.964050 
	C250.607849,164.780319 238.640091,157.866226 224.274734,155.864548 
z"/>
<path fill="#0D2458" opacity="1.000000" stroke="none" 
	d="
M338.743958,434.754150 
	C336.078613,434.333252 333.867218,433.629761 331.604187,433.360809 
	C330.485352,433.227875 329.212982,433.757812 328.110138,434.224304 
	C322.250854,436.702667 316.609741,435.457947 312.304504,430.649963 
	C308.001526,425.844574 307.257965,416.966125 310.665283,411.077667 
	C313.680450,405.866913 319.968903,402.765198 325.396576,404.114746 
	C327.262482,404.578705 328.940063,405.800049 330.475586,405.756866 
	C333.348938,405.119995 336.222260,404.483124 339.176575,403.828308 
	C339.176575,414.673615 339.176575,424.662201 338.743958,434.754150 
M317.139557,421.900879 
	C318.690125,426.198273 321.504242,428.655762 326.216888,427.222595 
	C330.221008,426.004913 331.933685,422.987701 331.361053,418.771942 
	C330.721497,414.063690 327.677246,411.351196 323.429626,411.721130 
	C318.947052,412.111481 317.072723,414.847443 317.139557,421.900879 
z"/>
<path fill="#23B0E6" opacity="1.000000" stroke="none" 
	d="
M224.087723,156.044006 
	C238.640091,157.866226 250.607849,164.780319 261.486969,173.964050 
	C264.008057,176.092239 266.653931,178.073318 269.254822,180.106140 
	C278.015869,186.953705 286.154846,194.309937 289.712830,205.628708 
	C289.332428,206.000839 289.162567,206.003174 288.565033,206.004517 
	C286.424530,206.004410 284.711639,206.005249 282.697327,205.855560 
	C279.706543,202.197449 277.491089,198.149292 274.231659,195.292175 
	C266.911163,188.875320 259.338501,182.667465 251.356049,177.110718 
	C245.517639,173.046509 240.094528,168.150513 232.192383,167.352875 
	C225.975983,166.725403 223.425201,163.173584 223.024261,158.087402 
	C223.316406,157.466095 223.608551,156.844772 224.087723,156.044006 
z"/>
<path fill="#2DBBE8" opacity="1.000000" stroke="none" 
	d="
M222.768097,158.305328 
	C223.425201,163.173584 225.975983,166.725403 232.192383,167.352875 
	C240.094528,168.150513 245.517639,173.046509 251.356049,177.110718 
	C259.338501,182.667465 266.911163,188.875320 274.231659,195.292175 
	C277.491089,198.149292 279.706543,202.197449 282.696930,206.104767 
	C282.997986,206.504501 282.996338,207.003052 282.620789,207.008331 
	C277.761993,209.736710 274.758148,208.464218 272.787231,203.722916 
	C272.305511,202.564117 271.225891,201.534149 270.192261,200.744675 
	C264.942932,196.735397 259.382080,193.101578 254.367859,188.823486 
	C242.978516,179.106201 229.363464,176.114258 215.005264,174.699951 
	C214.957184,174.202835 214.928345,174.004990 214.899506,173.807144 
	C217.436981,168.712509 219.974472,163.617889 222.768097,158.305328 
z"/>
<path fill="#0F255B" opacity="1.000000" stroke="none" 
	d="
M394.391022,418.006348 
	C393.975464,414.391693 392.757660,411.324158 388.425354,411.529724 
	C384.061615,411.736786 382.496796,414.709351 382.453644,418.670746 
	C382.395996,423.965637 382.439392,429.261597 382.439392,434.670959 
	C379.377594,434.670959 376.937988,434.670959 374.204376,434.670959 
	C374.204376,420.417358 374.204376,406.364655 374.204376,392.108459 
	C376.901031,392.108459 379.340302,392.108459 382.340088,392.108459 
	C382.340088,396.939880 382.340088,401.700256 382.340088,405.500763 
	C386.844360,405.029938 391.112518,403.596497 394.786774,404.521698 
	C397.571381,405.222839 399.598969,408.930481 401.664734,411.963135 
	C401.238159,418.406464 401.223816,424.193665 400.877411,429.960907 
	C400.815277,430.995392 399.382446,431.947510 398.582489,432.937683 
	C397.728149,432.002991 396.471191,431.196686 396.121826,430.100952 
	C395.689789,428.746155 396.192230,427.123169 395.967590,425.665894 
	C395.570984,423.092834 394.929810,420.557495 394.391022,418.006348 
z"/>
<path fill="#0E2459" opacity="1.000000" stroke="none" 
	d="
M242.993790,433.007721 
	C242.518875,432.925476 241.932037,432.620117 241.585510,432.793884 
	C234.081665,436.557220 230.116669,436.236633 224.873337,431.369598 
	C220.285553,427.111084 218.871399,419.224182 221.554016,412.857330 
	C225.265686,404.048096 233.123077,401.690002 243.395233,406.272278 
	C248.594131,405.265076 250.539566,406.739319 250.089798,411.558624 
	C249.661011,416.152893 249.857620,420.823853 250.038284,425.450989 
	C250.186310,429.241913 250.388809,432.875366 246.004578,434.584930 
	C245.551758,434.660553 245.098953,434.736176 244.283142,434.443085 
	C243.611359,433.718811 243.302582,433.363281 242.993790,433.007721 
M233.462906,427.031036 
	C236.836533,428.241394 240.360153,427.697815 241.541748,424.475830 
	C242.609192,421.565125 242.633545,417.607697 241.470932,414.791840 
	C240.771225,413.097198 236.678848,411.580200 234.555588,412.039276 
	C232.416061,412.501862 230.020706,415.208008 229.179672,417.467926 
	C227.826950,421.102814 229.004562,424.639069 233.462906,427.031036 
z"/>
<path fill="#0C7ECF" opacity="1.000000" stroke="none" 
	d="
M290.265991,156.934372 
	C291.245483,158.642349 292.224945,160.350342 292.870453,162.342346 
	C285.294556,157.526962 278.039062,152.446640 270.815613,147.321198 
	C266.379913,144.173798 262.063782,140.853378 257.566315,137.798584 
	C252.113480,134.094879 246.526016,130.589340 240.997208,126.657364 
	C240.987595,125.862213 240.977585,125.407745 240.967575,124.953285 
	C240.967575,124.953285 240.989914,125.006721 241.201965,124.867050 
	C241.578094,124.418976 241.742157,124.110588 241.906219,123.802200 
	C241.906219,123.802200 241.912354,123.939690 242.190247,123.815948 
	C242.954102,122.432686 243.440063,121.173172 243.926025,119.913651 
	C243.926025,119.913651 243.977936,119.981369 244.204559,119.821190 
	C244.604752,119.087433 244.778336,118.513855 244.951935,117.940277 
	C244.951920,117.940277 245.000153,117.991638 245.207352,117.852295 
	C245.531891,117.380623 245.649231,117.048294 245.766571,116.715965 
	C245.766571,116.715965 245.677673,116.761230 246.063934,116.821159 
	C254.353500,120.314034 262.749695,122.982796 266.716309,131.886520 
	C267.447327,133.527390 269.347229,134.998169 271.058319,135.773880 
	C274.005554,137.109985 277.228333,137.838257 280.335480,138.821625 
	C280.335480,138.821625 280.190277,138.881668 280.227814,139.076447 
	C280.531647,139.507019 280.797974,139.742813 281.064301,139.978607 
	C281.064301,139.978607 280.999390,139.987045 281.035461,140.272339 
	C281.421082,141.026932 281.770660,141.496246 282.120239,141.965561 
	C282.120239,141.965561 282.038544,141.970001 282.060150,142.252502 
	C282.443359,143.006943 282.804932,143.478867 283.166534,143.950790 
	C283.166534,143.950790 283.077423,143.946945 283.063354,144.290100 
	C284.383575,146.742798 285.717834,148.852310 287.052124,150.961838 
	C287.052124,150.961838 287.001862,151.001099 287.035706,151.285309 
	C287.419067,152.033081 287.768585,152.496658 288.118134,152.960236 
	C288.118134,152.960236 288.033936,152.974457 288.059021,153.256424 
	C288.446350,154.008224 288.808624,154.478058 289.170898,154.947891 
	C289.170898,154.947891 289.077393,154.945999 289.089294,155.232849 
	C289.489441,155.991257 289.877716,156.462814 290.265991,156.934372 
z"/>
<path fill="#0D2458" opacity="1.000000" stroke="none" 
	d="
M189.689285,404.434387 
	C191.903366,404.430420 193.700333,404.430420 196.087173,404.430420 
	C196.087173,409.890137 196.144882,415.164917 196.068268,420.437805 
	C196.010666,424.401001 197.167007,427.430878 201.607513,427.877777 
	C204.902969,428.209473 207.569077,424.798431 207.641190,420.226440 
	C207.722092,415.097290 207.659775,409.965881 207.659775,404.518738 
	C210.458725,404.518738 212.871811,404.518738 215.722809,404.518738 
	C215.722809,414.379486 215.722809,424.256226 215.722809,435.308929 
	C212.993103,434.610748 210.594086,433.795563 208.129379,433.452820 
	C206.918732,433.284424 205.501144,433.802521 204.322845,434.333252 
	C196.656097,437.786591 188.864059,433.825989 188.060211,425.480530 
	C187.440002,419.041656 187.769409,412.507660 187.800140,406.016541 
	C187.802628,405.488159 188.759033,404.964294 189.689285,404.434387 
z"/>
<path fill="#128BD7" opacity="1.000000" stroke="none" 
	d="
M240.996811,126.998062 
	C246.526016,130.589340 252.113480,134.094879 257.566315,137.798584 
	C262.063782,140.853378 266.379913,144.173798 270.815613,147.321198 
	C278.039062,152.446640 285.294556,157.526962 292.889893,162.679657 
	C293.243256,162.732956 293.197510,162.783112 293.215546,163.036072 
	C293.470032,163.526184 293.706482,163.763321 293.942932,164.000473 
	C293.942932,164.000473 294.203613,164.181625 294.174652,164.736725 
	C295.770813,169.195358 297.395935,173.098877 298.670959,176.965332 
	C289.638092,170.812347 281.007263,164.620987 272.258972,158.600296 
	C262.151306,151.644165 252.006409,144.736755 241.725967,138.041138 
	C239.254761,136.431641 235.765839,134.344849 234.677368,140.003525 
	C233.926437,140.030273 233.497543,140.051666 233.039581,140.043732 
	C233.010498,140.014404 232.950287,139.957870 232.950287,139.957870 
	C234.029968,137.743988 235.109650,135.530106 236.754013,132.993164 
	C237.525620,132.078217 237.732544,131.486313 237.939453,130.894409 
	C237.939453,130.894409 237.963089,130.970703 238.190491,130.815628 
	C238.595978,130.080856 238.774078,129.501160 238.952179,128.921463 
	C238.952164,128.921463 238.989319,128.984192 239.211777,128.823227 
	C239.616013,128.098618 239.797791,127.534981 239.979568,126.971336 
	C239.979568,126.971336 240.003143,126.994499 240.244278,126.996368 
	C240.655869,126.998184 240.826340,126.998123 240.996811,126.998062 
z"/>
<path fill="#0D2458" opacity="1.000000" stroke="none" 
	d="
M365.635620,412.077881 
	C363.929596,412.103149 362.365112,412.187439 361.106750,411.607544 
	C357.236389,409.823944 356.369598,409.847626 352.819336,413.296478 
	C354.944244,414.238831 356.758636,415.126190 358.634979,415.853882 
	C360.794373,416.691284 363.147919,417.124115 365.172241,418.195435 
	C370.826996,421.188049 371.418121,428.823303 366.442352,432.773712 
	C360.225708,437.709290 348.708313,435.986389 343.634430,429.191895 
	C345.348114,427.741272 347.072845,426.281311 347.844635,425.627991 
	C351.981995,426.698639 355.169037,427.720093 358.435883,428.236115 
	C359.296448,428.372009 360.403748,426.945618 361.397766,426.236664 
	C360.556976,425.404877 359.858307,424.231720 358.846588,423.810516 
	C356.562439,422.859558 354.040161,422.475830 351.765869,421.506805 
	C347.726349,419.785522 344.463715,417.220886 345.085693,412.192627 
	C345.711334,407.134216 349.367615,404.920837 353.850555,403.944366 
	C359.373535,402.741302 363.852203,404.219208 368.679718,408.617767 
	C367.765503,409.681793 366.841339,410.757446 365.635620,412.077881 
z"/>
<path fill="#0B72C7" opacity="1.000000" stroke="none" 
	d="
M280.289673,138.461182 
	C277.228333,137.838257 274.005554,137.109985 271.058319,135.773880 
	C269.347229,134.998169 267.447327,133.527390 266.716309,131.886520 
	C262.749695,122.982796 254.353500,120.314034 246.052185,116.772690 
	C249.229828,109.804344 252.805496,102.944397 256.899536,95.089973 
	C264.995758,110.006905 272.619812,124.053810 280.289673,138.461182 
z"/>
<path fill="#55D9F2" opacity="1.000000" stroke="none" 
	d="
M204.899872,253.244141 
	C199.083435,242.795517 197.199631,231.586395 199.041565,219.393433 
	C204.778610,218.014191 209.901764,217.017029 214.878540,216.339951 
	C213.469116,220.494003 210.650345,224.602905 211.269089,228.104355 
	C212.530960,235.245148 215.644562,242.058731 217.687286,249.144867 
	C216.252502,250.852020 215.125732,252.421417 213.679596,254.018723 
	C212.571014,254.363724 211.781799,254.680847 210.689819,254.844910 
	C208.940552,253.167450 207.494049,251.643051 205.557800,249.602509 
	C205.230164,251.416000 205.065018,252.330078 204.899872,253.244141 
z"/>
<path fill="#0E2459" opacity="1.000000" stroke="none" 
	d="
M355.273621,222.303329 
	C356.002380,218.269974 356.387970,214.596191 357.451721,211.130524 
	C358.620697,207.321960 361.044617,204.441452 366.522583,203.941193 
	C365.533569,219.426682 364.561768,234.643127 363.581482,249.992111 
	C354.470184,247.007645 353.697449,245.918808 354.248627,237.183350 
	C354.552216,232.372314 354.901001,227.564133 355.273621,222.303329 
z"/>
<path fill="#0D2458" opacity="1.000000" stroke="none" 
	d="
M149.649963,204.212128 
	C152.368042,207.084412 156.213547,209.617920 156.776093,212.742477 
	C158.684769,223.343842 159.432632,234.154175 160.626083,244.903961 
	C157.185623,246.880997 154.255783,248.564606 150.720856,250.595932 
	C150.149338,244.038956 149.568222,238.140808 149.136383,232.231766 
	C148.529861,223.932693 147.965576,215.628693 147.578735,207.317719 
	C147.530823,206.288406 148.678955,205.203430 149.649963,204.212128 
z"/>
<path fill="#0E9CE3" opacity="1.000000" stroke="none" 
	d="
M277.969421,263.949371 
	C280.642822,268.034088 283.316193,272.118835 285.771851,276.723511 
	C285.409485,277.566223 285.264832,277.888947 285.120178,278.211670 
	C285.120178,278.211670 285.087830,278.108032 284.765350,278.107941 
	C281.977081,279.455017 279.511292,280.802185 277.045502,282.149384 
	C277.045502,282.149384 277.051086,282.066101 276.756775,282.074158 
	C274.981476,282.715454 273.500427,283.348663 272.019409,283.981903 
	C271.568268,284.197205 271.117126,284.412506 270.098511,284.461426 
	C268.692993,284.552795 267.854980,284.810577 267.016968,285.068390 
	C266.550507,285.247375 266.084045,285.426331 264.935364,285.397522 
	C261.171906,285.125275 258.090668,285.060791 254.952454,284.652832 
	C253.612946,281.242920 252.330444,278.176514 251.475632,275.088318 
	C255.599350,274.372375 259.295380,273.678223 263.350403,272.957214 
	C267.798187,270.263733 271.886902,267.597107 276.237976,264.836853 
	C276.990021,264.478607 277.479736,264.213989 277.969421,263.949371 
z"/>
<path fill="#49D0EF" opacity="1.000000" stroke="none" 
	d="
M215.024933,216.019882 
	C209.901764,217.017029 204.778610,218.014191 199.219879,219.023148 
	C198.870682,217.611664 198.957077,216.188400 199.336914,214.178894 
	C199.701965,213.262665 199.773544,212.932663 199.845123,212.602661 
	C200.669678,208.882782 201.494247,205.162888 203.062149,201.211777 
	C208.332275,200.955795 212.859055,200.931046 217.645325,201.098083 
	C219.918884,202.102280 221.932953,202.914673 223.786377,204.034332 
	C219.187073,206.573730 215.896057,209.613647 216.030975,215.067047 
	C215.999557,215.046997 216.073761,215.039932 215.836975,215.131104 
	C215.403961,215.490250 215.207748,215.758209 215.006271,216.017166 
	C215.001007,216.008163 215.024933,216.019882 215.024933,216.019882 
z"/>
<path fill="#16B2EB" opacity="1.000000" stroke="none" 
	d="
M251.047928,275.110107 
	C252.330444,278.176514 253.612946,281.242920 254.566208,284.652954 
	C252.531403,285.195618 250.825851,285.394714 249.120285,285.593781 
	C248.551285,285.562469 247.982269,285.531158 246.804413,285.123108 
	C245.031525,284.528381 243.867493,284.310425 242.703445,284.092438 
	C241.335144,283.810364 239.966827,283.528320 238.115601,282.848450 
	C237.090988,282.304626 236.549271,282.158691 236.007568,282.012726 
	C236.007568,282.012726 235.996185,282.006012 235.825806,281.755920 
	C235.100708,281.346680 234.545975,281.187531 233.991257,281.028381 
	C233.991257,281.028381 233.995026,281.003021 233.824951,280.757019 
	C233.093597,280.354492 232.532349,280.197998 231.971085,280.041504 
	C231.971085,280.041504 231.990921,279.999512 231.958191,279.659027 
	C232.621857,276.205902 233.318237,273.093292 234.343048,270.133545 
	C238.771088,271.535004 242.870667,272.783569 247.218323,274.293884 
	C248.660248,274.740417 249.854080,274.925262 251.047928,275.110107 
z"/>
<path fill="#3BCFF3" opacity="1.000000" stroke="none" 
	d="
M210.992584,254.997955 
	C211.781799,254.680847 212.571014,254.363724 214.051361,254.027664 
	C220.283722,254.568283 221.524734,260.054016 224.705536,263.126007 
	C220.976120,265.747772 217.308716,268.126740 220.846985,273.111877 
	C217.217224,269.054413 213.587479,264.996948 209.959671,260.204956 
	C210.305267,257.979614 210.648926,256.488770 210.992584,254.997955 
z"/>
<path fill="#303D67" opacity="1.000000" stroke="none" 
	d="
M198.787231,365.874084 
	C211.878296,365.380432 225.156860,365.018219 238.426056,365.233246 
	C243.193649,365.310547 244.538528,363.726532 244.122894,359.269806 
	C243.389633,351.407410 242.958664,343.516815 242.630463,335.338531 
	C243.955444,345.375092 245.051071,355.711151 246.220520,366.743591 
	C236.714706,366.743591 228.480148,366.809296 220.247177,366.723602 
	C213.154190,366.649811 206.063019,366.403534 198.787231,365.874084 
z"/>
<path fill="#2AC1EF" opacity="1.000000" stroke="none" 
	d="
M220.860092,273.102478 
	C217.308716,268.126740 220.976120,265.747772 225.003326,263.280884 
	C228.407669,265.513641 231.211151,267.747131 234.014618,269.980652 
	C233.318237,273.093292 232.621857,276.205902 231.942596,279.678070 
	C228.746628,278.222168 225.533524,276.406769 222.032654,274.084534 
	C221.534683,273.292664 221.253387,273.131775 220.901031,273.095032 
	C220.901031,273.095032 220.873199,273.093079 220.860092,273.102478 
z"/>
<path fill="#303D67" opacity="1.000000" stroke="none" 
	d="
M269.023010,349.389679 
	C269.393555,352.910522 269.860870,356.825562 269.828644,360.736481 
	C269.803101,363.841919 270.651978,365.213623 274.027618,365.171661 
	C286.126343,365.021210 298.238739,365.376038 310.319916,364.890686 
	C312.859924,364.788605 315.289154,361.930481 318.135925,360.289185 
	C316.735199,365.831146 312.946381,367.166870 307.237427,366.946808 
	C294.620605,366.460510 281.972137,366.795563 268.904236,366.795563 
	C268.904236,360.969604 268.904236,355.375824 269.023010,349.389679 
z"/>
<path fill="#3ECAED" opacity="1.000000" stroke="none" 
	d="
M217.385849,200.906296 
	C212.859055,200.931046 208.332275,200.955795 203.325226,200.966354 
	C204.648071,196.058762 206.451202,191.165375 208.603348,186.111420 
	C208.952377,185.950836 209.080063,186.052582 209.058960,186.419037 
	C211.746857,189.210785 214.455841,191.636093 217.132385,194.434052 
	C217.195236,196.839920 217.290543,198.873108 217.385849,200.906296 
z"/>
<path fill="#1698DD" opacity="1.000000" stroke="none" 
	d="
M308.481964,254.323853 
	C309.822876,249.219971 311.961823,243.988297 312.967865,238.547165 
	C315.124847,226.881195 314.701904,215.221985 310.882660,203.076233 
	C309.108063,197.911087 307.522644,193.475266 306.023193,188.970825 
	C306.109222,188.902222 306.280457,188.764038 306.280457,188.764038 
	C316.852448,210.172333 319.891876,231.867249 308.481964,254.323853 
z"/>
<path fill="#0A2055" opacity="1.000000" stroke="none" 
	d="
M246.409409,434.683472 
	C250.388809,432.875366 250.186310,429.241913 250.038284,425.450989 
	C249.857620,420.823853 249.661011,416.152893 250.089798,411.558624 
	C250.539566,406.739319 248.594131,405.265076 243.764862,406.040985 
	C245.569214,405.660339 247.826370,404.884705 250.002502,405.068481 
	C250.572372,405.116608 251.238754,408.138397 251.265503,409.804108 
	C251.395889,417.924530 251.324478,426.048187 251.324478,434.575836 
	C249.653900,434.652191 248.234070,434.717102 246.409409,434.683472 
z"/>
<path fill="#0A2055" opacity="1.000000" stroke="none" 
	d="
M394.306763,418.464478 
	C394.929810,420.557495 395.570984,423.092834 395.967590,425.665894 
	C396.192230,427.123169 395.689789,428.746155 396.121826,430.100952 
	C396.471191,431.196686 397.728149,432.002991 398.582489,432.937683 
	C399.382446,431.947510 400.815277,430.995392 400.877411,429.960907 
	C401.223816,424.193665 401.238159,418.406464 401.647217,412.320770 
	C402.205841,418.395966 402.483307,424.776489 402.482330,431.884186 
	C402.106720,433.241058 402.009521,433.870728 401.912323,434.500397 
	C399.487000,434.607086 397.061646,434.713806 394.222504,434.838715 
	C394.222504,429.135010 394.222504,424.028778 394.306763,418.464478 
z"/>
<path fill="#1698DD" opacity="1.000000" stroke="none" 
	d="
M299.021057,177.002396 
	C297.395935,173.098877 295.770813,169.195358 294.174866,164.895447 
	C297.531830,170.981049 300.859680,177.463028 304.155334,184.403046 
	C304.123169,184.861069 303.942993,185.041702 303.649597,184.858932 
	C301.911163,182.118240 300.466125,179.560318 299.021057,177.002396 
z"/>
<path fill="#43DFF5" opacity="1.000000" stroke="none" 
	d="
M210.689819,254.844894 
	C210.648926,256.488770 210.305267,257.979614 209.928284,259.860352 
	C208.316406,258.115662 206.737839,255.981079 205.029572,253.545319 
	C205.065018,252.330078 205.230164,251.416000 205.557800,249.602509 
	C207.494049,251.643051 208.940552,253.167450 210.689819,254.844894 
z"/>
<path fill="#1698DD" opacity="1.000000" stroke="none" 
	d="
M249.508881,285.721375 
	C250.825851,285.394714 252.531403,285.195618 254.623199,284.996460 
	C258.090668,285.060791 261.171906,285.125275 264.557678,285.370178 
	C259.873993,285.650055 254.885727,285.749512 249.508881,285.721375 
z"/>
<path fill="#1698DD" opacity="1.000000" stroke="none" 
	d="
M293.360474,272.916443 
	C295.927856,269.802124 298.813416,266.593597 302.039001,263.314575 
	C299.478882,266.436768 296.578735,269.629486 293.360474,272.916443 
z"/>
<path fill="#1698DD" opacity="1.000000" stroke="none" 
	d="
M277.422485,282.137146 
	C279.511292,280.802185 281.977081,279.455017 284.814270,278.131470 
	C282.723602,279.478394 280.261505,280.801666 277.422485,282.137146 
z"/>
<path fill="#0B72C7" opacity="1.000000" stroke="none" 
	d="
M287.003754,150.616562 
	C285.717834,148.852310 284.383575,146.742798 283.078247,144.248077 
	C284.389893,145.999008 285.672638,148.135147 287.003754,150.616562 
z"/>
<path fill="#303D67" opacity="1.000000" stroke="none" 
	d="
M240.053741,325.750488 
	C239.074966,324.442139 238.121414,322.826019 237.208939,320.862366 
	C238.192993,322.157440 239.135986,323.800079 240.053741,325.750488 
z"/>
<path fill="#303D67" opacity="1.000000" stroke="none" 
	d="
M242.370453,332.738373 
	C241.691742,331.547516 241.044617,330.023376 240.602753,328.278198 
	C241.339371,329.506470 241.870712,330.955811 242.370453,332.738373 
z"/>
<path fill="#303D67" opacity="1.000000" stroke="none" 
	d="
M269.899445,341.351501 
	C270.004028,342.623688 269.971771,344.233551 269.622925,345.946777 
	C269.458435,344.596497 269.610535,343.142822 269.899445,341.351501 
z"/>
<path fill="#1698DD" opacity="1.000000" stroke="none" 
	d="
M302.578552,263.205017 
	C303.068207,262.002533 303.856201,260.662872 304.992615,259.284790 
	C304.519653,260.520233 303.698273,261.794037 302.578552,263.205017 
z"/>
<path fill="#1698DD" opacity="1.000000" stroke="none" 
	d="
M305.600464,259.125305 
	C306.012817,257.954559 306.702087,256.625366 307.698242,255.144653 
	C307.295837,256.317719 306.586609,257.642303 305.600464,259.125305 
z"/>
<path fill="#1698DD" opacity="1.000000" stroke="none" 
	d="
M272.324158,284.039459 
	C273.500427,283.348663 274.981476,282.715454 276.795837,282.088867 
	C275.629089,282.762695 274.128967,283.429871 272.324158,284.039459 
z"/>
<path fill="#1698DD" opacity="1.000000" stroke="none" 
	d="
M304.210632,184.768219 
	C304.932587,185.816574 305.567078,186.957779 306.241028,188.431519 
	C306.280457,188.764038 306.109222,188.902222 305.776611,188.760773 
	C304.943634,187.426773 304.443329,186.234238 303.942993,185.041702 
	C303.942993,185.041702 304.123169,184.861069 304.210632,184.768219 
z"/>
<path fill="#0B72C7" opacity="1.000000" stroke="none" 
	d="
M243.646851,120.095078 
	C243.440063,121.173172 242.954102,122.432686 242.122406,123.804504 
	C242.306992,122.703377 242.837326,121.489937 243.646851,120.095078 
z"/>
<path fill="#303D67" opacity="1.000000" stroke="none" 
	d="
M195.830688,360.474335 
	C196.436646,360.982269 197.095917,361.799377 197.697784,362.956360 
	C197.054916,362.458679 196.469452,361.621063 195.830688,360.474335 
z"/>
<path fill="#1698DD" opacity="1.000000" stroke="none" 
	d="
M242.922302,284.319275 
	C243.867493,284.310425 245.031525,284.528381 246.419647,284.927795 
	C245.476196,284.921509 244.308685,284.733795 242.922302,284.319275 
z"/>
<path fill="#1698DD" opacity="1.000000" stroke="none" 
	d="
M267.305481,285.156250 
	C267.854980,284.810577 268.692993,284.552795 269.720764,284.465393 
	C269.138336,284.838531 268.366180,285.041321 267.305481,285.156250 
z"/>
<path fill="#128BD7" opacity="1.000000" stroke="none" 
	d="
M231.007751,146.003891 
	C230.818756,145.997375 230.629761,145.990875 230.158020,145.952515 
	C230.361160,144.702744 230.847031,143.484863 231.646652,142.113617 
	C231.960403,141.960281 232.059402,142.035767 232.037964,142.383224 
	C231.680283,143.821747 231.344009,144.912811 231.007751,146.003891 
z"/>
<path fill="#303D67" opacity="1.000000" stroke="none" 
	d="
M234.959518,316.709106 
	C234.421906,316.454803 233.851929,315.905212 233.325195,315.024261 
	C233.888016,315.266541 234.407593,315.840179 234.959518,316.709106 
z"/>
<path fill="#303D67" opacity="1.000000" stroke="none" 
	d="
M236.933228,319.692749 
	C236.383972,319.397308 235.795502,318.786591 235.243103,317.821472 
	C235.817444,318.103851 236.355743,318.740662 236.933228,319.692749 
z"/>
<path fill="#1698DD" opacity="1.000000" stroke="none" 
	d="
M288.562561,276.312378 
	C289.031860,275.671143 289.822693,274.981201 290.954163,274.258301 
	C290.491241,274.904755 289.687683,275.584229 288.562561,276.312378 
z"/>
<path fill="#1698DD" opacity="1.000000" stroke="none" 
	d="
M285.445007,278.177216 
	C285.264832,277.888947 285.409485,277.566223 285.778381,277.090485 
	C286.565887,276.713715 287.129150,276.489990 287.998718,276.274048 
	C287.459991,276.902161 286.614868,277.522461 285.445007,278.177216 
z"/>
<path fill="#303D67" opacity="1.000000" stroke="none" 
	d="
M232.341248,313.232941 
	C231.908264,313.028595 231.397507,312.578552 230.866898,311.829895 
	C231.319199,312.016602 231.791336,312.501923 232.341248,313.232941 
z"/>
<path fill="#0F255B" opacity="1.000000" stroke="none" 
	d="
M402.168091,434.513824 
	C402.009521,433.870728 402.106720,433.241058 402.384155,432.347870 
	C402.517578,432.898651 402.470734,433.712952 402.168091,434.513824 
z"/>
<path fill="#3ECAED" opacity="1.000000" stroke="none" 
	d="
M208.889938,185.898254 
	C209.034454,185.318405 209.241394,184.791168 209.720917,184.125610 
	C209.993469,183.987320 210.092834,184.061752 210.046616,184.349319 
	C209.693619,185.108780 209.386841,185.580673 209.080048,186.052582 
	C209.080063,186.052582 208.952377,185.950836 208.889938,185.898254 
z"/>
<path fill="#0A2055" opacity="1.000000" stroke="none" 
	d="
M242.958542,433.288574 
	C243.302582,433.363281 243.611359,433.718811 243.958130,434.319458 
	C243.638489,434.232880 243.280899,433.901154 242.958542,433.288574 
z"/>
<path fill="#0B72C7" opacity="1.000000" stroke="none" 
	d="
M244.704956,118.112862 
	C244.778336,118.513855 244.604752,119.087433 244.162567,119.813705 
	C244.081970,119.406082 244.269974,118.845764 244.704956,118.112862 
z"/>
<path fill="#0B72C7" opacity="1.000000" stroke="none" 
	d="
M240.997208,126.657364 
	C240.826340,126.998123 240.655869,126.998184 240.229660,126.991394 
	C240.110733,126.385117 240.247574,125.785683 240.675995,125.069771 
	C240.977585,125.407745 240.987595,125.862213 240.997208,126.657364 
z"/>
<path fill="#0B72C7" opacity="1.000000" stroke="none" 
	d="
M239.739624,127.147385 
	C239.797791,127.534981 239.616013,128.098618 239.175507,128.819733 
	C239.111069,128.425949 239.305389,127.874687 239.739624,127.147385 
z"/>
<path fill="#0B72C7" opacity="1.000000" stroke="none" 
	d="
M238.705139,129.099915 
	C238.774078,129.501160 238.595978,130.080856 238.150909,130.821014 
	C238.075333,130.413757 238.266724,129.846054 238.705139,129.099915 
z"/>
<path fill="#0B72C7" opacity="1.000000" stroke="none" 
	d="
M237.676529,131.060440 
	C237.732544,131.486313 237.525620,132.078217 237.024857,132.807861 
	C236.958542,132.372559 237.186066,131.799515 237.676529,131.060440 
z"/>
<path fill="#303D67" opacity="1.000000" stroke="none" 
	d="
M197.677307,363.585938 
	C197.990570,363.768402 198.328613,364.226135 198.556396,364.991241 
	C198.198120,364.819489 197.950089,364.340332 197.677307,363.585938 
z"/>
<path fill="#0B72C7" opacity="1.000000" stroke="none" 
	d="
M283.145416,143.642853 
	C282.804932,143.478867 282.443359,143.006943 282.078400,142.215897 
	C282.424805,142.376144 282.774536,142.855515 283.145416,143.642853 
z"/>
<path fill="#3ECAED" opacity="1.000000" stroke="none" 
	d="
M209.944977,183.948547 
	C210.067520,183.357773 210.238586,182.805756 210.692566,182.113632 
	C210.975494,181.973526 211.086441,182.058212 211.041321,182.345764 
	C210.695084,183.109467 210.393951,183.585602 210.092834,184.061752 
	C210.092834,184.061752 209.993469,183.987320 209.944977,183.948547 
z"/>
<path fill="#3ECAED" opacity="1.000000" stroke="none" 
	d="
M210.921616,181.929169 
	C211.030350,181.326233 211.192978,180.767624 211.652740,180.080353 
	C211.949890,179.951675 212.081009,180.055038 212.035858,180.342636 
	C211.689301,181.106232 211.387878,181.582230 211.086441,182.058212 
	C211.086441,182.058212 210.975494,181.973526 210.921616,181.929169 
z"/>
<path fill="#3ECAED" opacity="1.000000" stroke="none" 
	d="
M211.885742,179.898254 
	C212.000824,179.297653 212.180054,178.750473 212.652863,178.076080 
	C212.946426,177.948883 213.077621,178.052856 213.033234,178.340942 
	C212.686234,179.104355 212.383621,179.579697 212.080994,180.055038 
	C212.081009,180.055038 211.949890,179.951675 211.885742,179.898254 
z"/>
<path fill="#3ECAED" opacity="1.000000" stroke="none" 
	d="
M212.882263,177.895111 
	C212.987167,177.288773 213.156235,176.736206 213.624344,176.057068 
	C213.923370,175.930527 214.073425,176.055145 214.028534,176.342346 
	C213.681641,177.104004 213.379639,177.578430 213.077621,178.052856 
	C213.077621,178.052856 212.946426,177.948883 212.882263,177.895111 
z"/>
<path fill="#3ECAED" opacity="1.000000" stroke="none" 
	d="
M214.652954,173.978821 
	C214.928345,174.004990 214.957184,174.202835 214.892456,174.914032 
	C214.607285,175.694672 214.365463,175.903931 214.073425,176.055145 
	C214.073425,176.055145 213.923370,175.930527 213.847610,175.867340 
	C213.983383,175.252930 214.194901,174.701721 214.652954,173.978821 
z"/>
<path fill="#0B72C7" opacity="1.000000" stroke="none" 
	d="
M290.214264,156.625397 
	C289.877716,156.462814 289.489441,155.991257 289.103333,155.188248 
	C289.457855,155.343353 289.810211,155.829895 290.214264,156.625397 
z"/>
<path fill="#0B72C7" opacity="1.000000" stroke="none" 
	d="
M289.144226,154.642319 
	C288.808624,154.478058 288.446350,154.008224 288.080444,153.219498 
	C288.423676,153.379318 288.770599,153.858032 289.144226,154.642319 
z"/>
<path fill="#0B72C7" opacity="1.000000" stroke="none" 
	d="
M288.097656,152.660263 
	C287.768585,152.496658 287.419067,152.033081 287.055145,151.260254 
	C287.386230,151.420761 287.731689,151.890518 288.097656,152.660263 
z"/>
<path fill="#128BD7" opacity="1.000000" stroke="none" 
	d="
M229.661377,146.049835 
	C229.748993,146.479843 229.568268,147.069687 229.104462,147.808502 
	C229.011932,147.374878 229.202484,146.792267 229.661377,146.049835 
z"/>
<path fill="#303D67" opacity="1.000000" stroke="none" 
	d="
M219.293915,301.576996 
	C218.943222,301.589325 218.503281,301.368958 217.986984,300.899628 
	C218.341980,300.881866 218.773331,301.113098 219.293915,301.576996 
z"/>
<path fill="#0B72C7" opacity="1.000000" stroke="none" 
	d="
M282.101013,141.663406 
	C281.770660,141.496246 281.421082,141.026932 281.054840,140.245972 
	C281.386047,140.409958 281.733917,140.885605 282.101013,141.663406 
z"/>
<path fill="#128BD7" opacity="1.000000" stroke="none" 
	d="
M231.912933,141.920044 
	C232.058060,141.337631 232.250687,140.795471 232.696808,140.105591 
	C232.950287,139.957870 233.010498,140.014404 232.995392,140.329559 
	C232.673325,141.108398 232.366364,141.572083 232.059402,142.035767 
	C232.059402,142.035767 231.960403,141.960281 231.912933,141.920044 
z"/>
<path fill="#1698DD" opacity="1.000000" stroke="none" 
	d="
M291.502197,274.279114 
	C291.602020,273.911621 291.990112,273.490967 292.691101,273.055603 
	C292.599487,273.435883 292.194946,273.830902 291.502197,274.279114 
z"/>
<path fill="#2AC1EF" opacity="1.000000" stroke="none" 
	d="
M232.123535,280.300537 
	C232.532349,280.197998 233.093597,280.354492 233.814636,280.765198 
	C233.408279,280.866119 232.842133,280.712830 232.123535,280.300537 
z"/>
<path fill="#2AC1EF" opacity="1.000000" stroke="none" 
	d="
M236.170090,282.256744 
	C236.549271,282.158691 237.090988,282.304626 237.805664,282.680298 
	C237.429962,282.773590 236.881287,282.637177 236.170090,282.256744 
z"/>
<path fill="#2AC1EF" opacity="1.000000" stroke="none" 
	d="
M234.146973,281.282684 
	C234.545975,281.187531 235.100708,281.346680 235.819489,281.753510 
	C235.423264,281.846466 234.862976,281.691742 234.146973,281.282684 
z"/>
<path fill="#303D67" opacity="1.000000" stroke="none" 
	d="
M222.078735,303.604614 
	C221.867813,303.714874 221.558304,303.573669 221.129852,303.197083 
	C221.334000,303.092163 221.657074,303.222626 222.078735,303.604614 
z"/>
<path fill="#303D67" opacity="1.000000" stroke="none" 
	d="
M270.911926,335.171204 
	C271.143768,335.236694 271.163818,335.403595 270.999695,335.679993 
	C270.718567,335.640259 270.680145,335.467987 270.911926,335.171204 
z"/>
<path fill="#0B72C7" opacity="1.000000" stroke="none" 
	d="
M245.505280,116.816849 
	C245.649231,117.048294 245.531891,117.380623 245.173889,117.841347 
	C245.036789,117.619072 245.140381,117.268402 245.505280,116.816849 
z"/>
<path fill="#303D67" opacity="1.000000" stroke="none" 
	d="
M223.257965,304.541504 
	C223.037247,304.649414 222.694580,304.497894 222.236511,304.078308 
	C222.459427,303.967529 222.797729,304.124817 223.257965,304.541504 
z"/>
<path fill="#303D67" opacity="1.000000" stroke="none" 
	d="
M228.455322,308.949158 
	C228.460724,309.067657 228.081100,308.943451 228.061096,308.839386 
	C228.041092,308.735321 228.449936,308.830627 228.455322,308.949158 
z"/>
<path fill="#303D67" opacity="1.000000" stroke="none" 
	d="
M229.432083,309.927063 
	C229.248795,310.075592 229.091507,309.990601 228.958282,309.673584 
	C229.141647,309.522308 229.300217,309.606293 229.432083,309.927063 
z"/>
<path fill="#303D67" opacity="1.000000" stroke="none" 
	d="
M230.372467,310.913330 
	C230.180847,311.047272 230.042130,310.960999 229.942780,310.661499 
	C230.133698,310.512238 230.281448,310.593872 230.372467,310.913330 
z"/>
<path fill="#0C7ECF" opacity="1.000000" stroke="none" 
	d="
M293.924805,163.727753 
	C293.706482,163.763321 293.470032,163.526184 293.181610,163.036865 
	C293.388672,163.008148 293.647675,163.231583 293.924805,163.727753 
z"/>
<path fill="#303D67" opacity="1.000000" stroke="none" 
	d="
M233.272827,314.406616 
	C233.038574,314.466675 232.772827,314.309814 232.543762,313.905090 
	C232.893234,313.719971 233.113525,313.897461 233.272827,314.406616 
z"/>
<path fill="#55D9F2" opacity="1.000000" stroke="none" 
	d="
M199.648804,212.774994 
	C199.773544,212.932663 199.701965,213.262665 199.443527,213.764709 
	C199.321930,213.606964 199.387207,213.277145 199.648804,212.774994 
z"/>
<path fill="#0B72C7" opacity="1.000000" stroke="none" 
	d="
M241.653778,123.903259 
	C241.742157,124.110588 241.578094,124.418976 241.177750,124.851112 
	C241.094757,124.651344 241.248047,124.327827 241.653778,123.903259 
z"/>
<path fill="#1698DD" opacity="1.000000" stroke="none" 
	d="
M228.645462,147.922607 
	C228.753479,148.137451 228.598984,148.442245 228.222473,148.884064 
	C228.127960,148.684921 228.255463,148.348740 228.645462,147.922607 
z"/>
<path fill="#0B72C7" opacity="1.000000" stroke="none" 
	d="
M281.035583,139.697144 
	C280.797974,139.742813 280.531647,139.507019 280.225708,138.997894 
	C280.459686,138.954941 280.733276,139.185318 281.035583,139.697144 
z"/>
<path fill="#3BCFF3" opacity="1.000000" stroke="none" 
	d="
M220.980164,273.338257 
	C221.253387,273.131775 221.534683,273.292664 221.843567,273.805481 
	C221.647919,273.882629 221.353607,273.732056 220.980164,273.338257 
z"/>
<path fill="#303D67" opacity="1.000000" stroke="none" 
	d="
M319.100128,359.505035 
	C318.977753,359.522003 319.067993,359.114868 319.174652,359.085083 
	C319.281311,359.055267 319.222504,359.488068 319.100128,359.505035 
z"/>
<path fill="#303D67" opacity="1.000000" stroke="none" 
	d="
M194.971710,359.296356 
	C195.198715,359.249390 195.468918,359.466187 195.776093,359.947266 
	C195.547012,359.994415 195.280960,359.777252 194.971710,359.296356 
z"/>
<path fill="#1394DB" opacity="1.000000" stroke="none" 
	d="
M303.649597,184.858932 
	C304.443329,186.234238 304.943634,187.426773 305.690582,188.829376 
	C307.522644,193.475266 309.108063,197.911087 310.818054,202.690887 
	C310.007782,203.501419 308.519501,203.745255 308.227570,204.470581 
	C306.278046,209.314743 304.692596,214.305878 302.726868,219.142761 
	C302.258240,220.295898 300.796173,221.045288 299.402832,221.658844 
	C299.017914,220.894882 299.021179,220.452438 299.394012,219.927643 
	C300.509338,217.262421 301.633148,214.722183 301.930328,212.088684 
	C302.842438,204.006302 300.495667,196.687088 295.963562,189.646744 
	C290.731018,182.921234 285.874023,176.223740 280.210541,170.296860 
	C276.859344,166.789841 271.913940,164.859314 268.246979,161.589996 
	C260.356079,154.554764 251.385986,149.491791 241.792160,145.252579 
	C239.250290,144.129410 237.248932,141.782944 234.999390,139.998169 
	C235.765839,134.344849 239.254761,136.431641 241.725967,138.041138 
	C252.006409,144.736755 262.151306,151.644165 272.258972,158.600296 
	C281.007263,164.620987 289.638092,170.812347 298.670959,176.965332 
	C300.466125,179.560318 301.911163,182.118240 303.649597,184.858932 
z"/>
<path fill="#1DB8EE" opacity="1.000000" stroke="none" 
	d="
M299.024475,220.009995 
	C299.021179,220.452438 299.017914,220.894882 299.026978,221.668976 
	C299.091705,231.478226 295.427155,239.730148 289.939636,247.750946 
	C285.133484,245.801865 287.740265,241.970459 287.006073,238.618530 
	C287.574371,236.700699 287.840454,234.952179 288.751282,233.657059 
	C292.260803,228.666718 292.672699,223.424652 291.083160,217.654236 
	C290.039856,213.866760 289.666199,209.894821 288.992676,206.005493 
	C289.162567,206.003174 289.332428,206.000839 289.757263,205.992828 
	C291.146484,206.562744 292.280762,207.138336 293.852722,208.174866 
	C295.868439,212.427216 297.446442,216.218613 299.024475,220.009995 
z"/>
<path fill="#1CC8F5" opacity="1.000000" stroke="none" 
	d="
M287.000000,238.996124 
	C287.740265,241.970459 285.133484,245.801865 289.672485,247.959198 
	C286.136261,253.131317 282.208527,258.247955 278.125122,263.656982 
	C277.479736,264.213989 276.990021,264.478607 276.235443,264.439178 
	C275.979218,261.087463 275.206787,257.762909 276.167389,255.052582 
	C277.895966,250.175171 280.663452,245.665970 283.325134,240.953445 
	C284.768921,240.268005 285.884460,239.632065 287.000000,238.996124 
z"/>
<path fill="#ECEFF5" opacity="1.000000" stroke="none" 
	d="
M126.709793,410.713043 
	C127.650902,408.187256 128.464218,406.021423 129.605179,402.983154 
	C131.702072,408.431244 133.509613,413.127594 135.497314,418.292023 
	C131.530075,418.292023 128.038940,418.292023 123.896820,418.292023 
	C124.915230,415.554077 125.748619,413.313568 126.709793,410.713043 
z"/>
<path fill="#ECEFF5" opacity="1.000000" stroke="none" 
	d="
M169.919983,426.981323 
	C165.461609,428.357269 161.731689,427.010681 160.473877,423.315460 
	C159.558899,420.627441 160.021225,416.365082 161.693787,414.241455 
	C163.105286,412.449280 167.507385,411.571747 169.931503,412.343781 
	C173.913422,413.611969 174.351608,417.912018 173.600815,421.595245 
	C173.212509,423.500153 171.430878,425.121033 169.919983,426.981323 
z"/>
<path fill="#1698DD" opacity="1.000000" stroke="none" 
	d="
M234.677368,140.003525 
	C237.248932,141.782944 239.250290,144.129410 241.792160,145.252579 
	C251.385986,149.491791 260.356079,154.554764 268.246979,161.589996 
	C271.913940,164.859314 276.859344,166.789841 280.210541,170.296860 
	C285.874023,176.223740 290.731018,182.921234 295.595032,189.642487 
	C293.845215,189.661240 292.427490,189.332214 291.009766,189.003189 
	C289.595917,187.425064 288.204681,185.825989 286.764587,184.272186 
	C276.272461,172.951660 264.024200,163.877747 250.624481,156.338684 
	C244.385971,152.828705 237.963821,149.645111 231.316330,146.158722 
	C231.344009,144.912811 231.680283,143.821747 232.037964,142.383224 
	C232.366364,141.572083 232.673325,141.108398 233.024475,140.358887 
	C233.497543,140.051666 233.926437,140.030273 234.677368,140.003525 
z"/>
<path fill="#0E9CE3" opacity="1.000000" stroke="none" 
	d="
M291.048401,189.369965 
	C292.427490,189.332214 293.845215,189.661240 295.631470,189.994537 
	C300.495667,196.687088 302.842438,204.006302 301.930328,212.088684 
	C301.633148,214.722183 300.509338,217.262421 299.394043,219.927643 
	C297.446442,216.218613 295.868439,212.427216 294.147034,208.315460 
	C297.654846,201.170456 293.007599,195.671387 291.048401,189.369965 
z"/>
<path fill="#ECEFF5" opacity="1.000000" stroke="none" 
	d="
M317.070496,421.502686 
	C317.072723,414.847443 318.947052,412.111481 323.429626,411.721130 
	C327.677246,411.351196 330.721497,414.063690 331.361053,418.771942 
	C331.933685,422.987701 330.221008,426.004913 326.216888,427.222595 
	C321.504242,428.655762 318.690125,426.198273 317.070496,421.502686 
z"/>
<path fill="#2AC1EF" opacity="1.000000" stroke="none" 
	d="
M287.006073,238.618546 
	C285.884460,239.632065 284.768921,240.268005 283.325745,240.580505 
	C282.666229,238.838333 282.334320,237.419617 282.152191,235.665375 
	C283.200165,232.219360 284.098328,229.108902 285.284485,225.773254 
	C285.680786,222.955399 286.201935,220.296555 285.799469,217.785721 
	C285.214386,214.135513 283.963379,210.592041 282.996338,207.003052 
	C282.996338,207.003052 282.997986,206.504501 282.998383,206.255295 
	C284.711639,206.005249 286.424530,206.004410 288.565033,206.004517 
	C289.666199,209.894821 290.039856,213.866760 291.083160,217.654236 
	C292.672699,223.424652 292.260803,228.666718 288.751282,233.657059 
	C287.840454,234.952179 287.574371,236.700699 287.006073,238.618546 
z"/>
<path fill="#33C4EC" opacity="1.000000" stroke="none" 
	d="
M282.620789,207.008331 
	C283.963379,210.592041 285.214386,214.135513 285.799469,217.785721 
	C286.201935,220.296555 285.680786,222.955399 285.011932,225.522644 
	C283.201385,219.747955 281.107239,214.433441 277.640533,210.467392 
	C274.874298,211.520386 272.938812,212.257141 270.997925,212.625763 
	C270.062561,210.765579 269.442810,208.885483 268.147736,207.850220 
	C263.170319,203.871460 257.855408,200.313705 252.893463,196.317017 
	C246.434937,191.114883 239.606094,187.658188 231.013092,189.558716 
	C231.136719,187.378662 231.277588,185.636047 231.563812,183.716248 
	C231.509216,183.032196 231.309280,182.525345 230.864594,181.733063 
	C227.003860,180.307632 224.619003,181.930313 222.809067,184.899216 
	C220.941925,187.961975 219.047379,191.008026 217.164825,194.061371 
	C214.455841,191.636093 211.746857,189.210785 209.058960,186.419022 
	C209.386841,185.580673 209.693619,185.108780 210.046616,184.349319 
	C210.393951,183.585602 210.695084,183.109467 211.041321,182.345764 
	C211.387878,181.582230 211.689301,181.106232 212.035858,180.342636 
	C212.383621,179.579697 212.686234,179.104355 213.033234,178.340942 
	C213.379639,177.578430 213.681641,177.104004 214.028534,176.342346 
	C214.365463,175.903931 214.607285,175.694672 214.911682,175.213318 
	C229.363464,176.114258 242.978516,179.106201 254.367859,188.823486 
	C259.382080,193.101578 264.942932,196.735397 270.192261,200.744675 
	C271.225891,201.534149 272.305511,202.564117 272.787231,203.722916 
	C274.758148,208.464218 277.761993,209.736710 282.620789,207.008331 
z"/>
<path fill="#ECEFF5" opacity="1.000000" stroke="none" 
	d="
M233.107605,426.893494 
	C229.004562,424.639069 227.826950,421.102814 229.179672,417.467926 
	C230.020706,415.208008 232.416061,412.501862 234.555588,412.039276 
	C236.678848,411.580200 240.771225,413.097198 241.470932,414.791840 
	C242.633545,417.607697 242.609192,421.565125 241.541748,424.475830 
	C240.360153,427.697815 236.836533,428.241394 233.107605,426.893494 
z"/>
<path fill="#CCF9FB" opacity="1.000000" stroke="none" 
	d="
M217.995316,249.007111 
	C215.644562,242.058731 212.530960,235.245148 211.269089,228.104355 
	C210.650345,224.602905 213.469116,220.494003 214.878540,216.339951 
	C215.024933,216.019882 215.001007,216.008163 215.243195,215.925446 
	C215.681488,215.575134 215.877625,215.307541 216.073761,215.039932 
	C216.073761,215.039932 215.999557,215.046997 216.418518,215.039719 
	C219.883820,215.040710 222.930161,215.048981 226.127686,215.286774 
	C226.783310,215.704773 227.287735,215.893234 227.939240,216.300110 
	C228.385773,216.691238 228.685211,216.863953 229.104858,217.252838 
	C229.447739,217.731903 229.728424,217.894897 230.204117,218.262238 
	C232.885986,221.048752 235.430862,223.530975 238.098511,226.331924 
	C243.544022,233.935211 248.638824,241.312057 247.918533,251.272354 
	C247.545074,252.380310 247.322891,253.197372 246.958725,254.309418 
	C246.548233,255.401337 246.279709,256.198273 245.814484,257.287903 
	C237.799652,263.731903 229.542084,260.576324 220.041992,251.709381 
	C219.675064,250.985519 219.312531,250.558273 218.857986,249.892517 
	C218.509094,249.438370 218.252213,249.222733 217.995316,249.007111 
z"/>
<path fill="#43DFF5" opacity="1.000000" stroke="none" 
	d="
M217.687286,249.144867 
	C218.252213,249.222733 218.509094,249.438370 218.895981,250.177444 
	C219.366119,251.135925 219.706268,251.570953 220.046402,252.005997 
	C229.542084,260.576324 237.799652,263.731903 246.219894,257.287170 
	C256.333893,256.428284 268.441467,245.984604 270.371948,236.923340 
	C275.139252,229.001190 273.743683,224.881699 265.691711,221.679718 
	C265.015106,221.410645 264.563263,220.576508 264.379211,220.004150 
	C266.503265,219.004517 268.255127,218.005615 270.397614,217.005997 
	C275.396851,216.930435 276.876160,220.046127 276.903168,223.771011 
	C276.937592,228.511765 276.328979,233.257202 275.726013,238.203339 
	C271.814240,247.160065 264.229248,252.546997 257.256073,257.993805 
	C252.831024,261.450226 248.804413,263.985260 248.866745,270.178619 
	C248.879593,271.456665 247.635178,272.747314 246.970261,274.032166 
	C242.870667,272.783569 238.771088,271.535004 234.343048,270.133545 
	C231.211151,267.747131 228.407669,265.513641 225.306427,263.125244 
	C221.524734,260.054016 220.283722,254.568283 214.370743,253.999771 
	C215.125732,252.421417 216.252502,250.852020 217.687286,249.144867 
z"/>
<path fill="#34DAF6" opacity="1.000000" stroke="none" 
	d="
M247.218323,274.293884 
	C247.635178,272.747314 248.879593,271.456665 248.866745,270.178619 
	C248.804413,263.985260 252.831024,261.450226 257.256073,257.993805 
	C264.229248,252.546997 271.814240,247.160065 276.101654,238.203217 
	C277.500031,238.002487 278.251221,238.004593 278.996521,238.381668 
	C274.957367,244.708099 271.272766,250.939346 266.787781,256.528320 
	C262.717072,261.601013 257.991577,266.026062 262.991394,272.984070 
	C259.295380,273.678223 255.599350,274.372375 251.475632,275.088318 
	C249.854080,274.925262 248.660248,274.740417 247.218323,274.293884 
z"/>
<path fill="#26D3F6" opacity="1.000000" stroke="none" 
	d="
M263.350403,272.957214 
	C257.991577,266.026062 262.717072,261.601013 266.787781,256.528320 
	C271.272766,250.939346 274.957367,244.708099 279.270111,238.252090 
	C280.367188,237.165329 281.184814,236.583115 282.002411,236.000900 
	C282.334320,237.419617 282.666229,238.838333 282.997528,240.630005 
	C280.663452,245.665970 277.895966,250.175171 276.167389,255.052582 
	C275.206787,257.762909 275.979218,261.087463 275.973114,264.532837 
	C271.886902,267.597107 267.798187,270.263733 263.350403,272.957214 
z"/>
<path fill="#55D9F2" opacity="1.000000" stroke="none" 
	d="
M264.006989,220.004883 
	C264.563263,220.576508 265.015106,221.410645 265.691711,221.679718 
	C273.743683,224.881699 275.139252,229.001190 270.371094,236.494507 
	C270.463898,230.628937 269.265045,226.330658 262.802155,225.267487 
	C261.507172,225.054443 260.463104,223.531784 259.221558,222.741379 
	C253.853531,219.323883 248.726883,215.368240 243.000488,212.712006 
	C235.475113,209.221283 229.813858,210.461853 225.976486,215.057251 
	C222.930161,215.048981 219.883820,215.040710 216.449951,215.059753 
	C215.896057,209.613647 219.187073,206.573730 223.962769,203.793518 
	C225.495102,202.118896 226.690414,200.992371 228.109528,200.161926 
	C229.521347,201.007507 230.670792,201.670853 231.903427,202.088898 
	C243.707184,206.092148 256.007721,209.187958 264.006989,220.004883 
z"/>
<path fill="#CCF9FB" opacity="1.000000" stroke="none" 
	d="
M227.885742,199.865860 
	C226.690414,200.992371 225.495102,202.118896 224.123413,203.486237 
	C221.932953,202.914673 219.918884,202.102280 217.645325,201.098083 
	C217.290543,198.873108 217.195236,196.839920 217.132385,194.434052 
	C219.047379,191.008026 220.941925,187.961975 222.809067,184.899216 
	C224.619003,181.930313 227.003860,180.307632 230.838593,182.055206 
	C231.177704,183.072983 231.298080,183.483215 231.418457,183.893433 
	C231.277588,185.636047 231.136719,187.378662 230.933075,189.736984 
	C230.870270,190.352692 230.879807,190.743256 230.636993,191.032928 
	C229.558044,194.170364 228.721893,197.018112 227.885742,199.865860 
z"/>
<path fill="#55D9F2" opacity="1.000000" stroke="none" 
	d="
M215.836975,215.131104 
	C215.877625,215.307541 215.681488,215.575134 215.248444,215.934448 
	C215.207748,215.758209 215.403961,215.490250 215.836975,215.131104 
z"/>
<path fill="#3BCFF3" opacity="1.000000" stroke="none" 
	d="
M282.152191,235.665375 
	C281.184814,236.583115 280.367188,237.165329 279.276001,237.877121 
	C278.251221,238.004593 277.500031,238.002487 276.373169,238.000488 
	C276.328979,233.257202 276.937592,228.511765 276.903168,223.771011 
	C276.876160,220.046127 275.396851,216.930435 270.154358,216.834839 
	C269.346588,216.109604 269.172699,215.554810 269.264709,214.878113 
	C270.021515,214.168793 270.512421,213.581345 271.003326,212.993896 
	C272.938812,212.257141 274.874298,211.520386 277.640533,210.467392 
	C281.107239,214.433441 283.201385,219.747955 284.723938,225.747803 
	C284.098328,229.108902 283.200165,232.219360 282.152191,235.665375 
z"/>
<path fill="#3ECAED" opacity="1.000000" stroke="none" 
	d="
M270.997925,212.625763 
	C270.512421,213.581345 270.021515,214.168793 268.963226,214.728943 
	C265.751648,212.218765 263.475983,209.055191 260.391632,207.385452 
	C252.346344,203.030060 243.983444,199.249481 235.664459,195.419403 
	C233.406204,194.379700 230.683502,194.155731 230.879807,190.743256 
	C230.879807,190.743256 230.870270,190.352692 230.950302,190.174423 
	C239.606094,187.658188 246.434937,191.114883 252.893463,196.317017 
	C257.855408,200.313705 263.170319,203.871460 268.147736,207.850220 
	C269.442810,208.885483 270.062561,210.765579 270.997925,212.625763 
z"/>
<path fill="#3ECAED" opacity="1.000000" stroke="none" 
	d="
M231.563797,183.716248 
	C231.298080,183.483215 231.177704,183.072983 231.083344,182.340637 
	C231.309280,182.525345 231.509216,183.032196 231.563797,183.716248 
z"/>
<path fill="#59DEF4" opacity="1.000000" stroke="none" 
	d="
M226.127686,215.286774 
	C229.813858,210.461853 235.475113,209.221283 243.000488,212.712006 
	C248.726883,215.368240 253.853531,219.323883 259.221558,222.741379 
	C260.463104,223.531784 261.507172,225.054443 262.802155,225.267487 
	C269.265045,226.330658 270.463898,230.628937 270.001587,236.570099 
	C268.441467,245.984604 256.333893,256.428284 246.416595,256.994476 
	C246.279709,256.198273 246.548233,255.401337 247.315125,254.258331 
	C250.777603,252.472137 254.032318,251.426590 256.641693,249.504822 
	C261.230865,246.125000 263.743591,241.452789 264.071381,235.523422 
	C264.385773,229.836700 259.830322,227.907486 256.561493,225.196915 
	C248.906204,218.849091 240.253220,215.401505 230.067139,217.957962 
	C229.728424,217.894897 229.447739,217.731903 228.979431,217.014603 
	C228.419922,216.400711 228.106033,216.241211 227.792160,216.081711 
	C227.287735,215.893234 226.783310,215.704773 226.127686,215.286774 
z"/>
<path fill="#63E5F5" opacity="1.000000" stroke="none" 
	d="
M230.204117,218.262238 
	C240.253220,215.401505 248.906204,218.849091 256.561493,225.196915 
	C259.830322,227.907486 264.385773,229.836700 264.071381,235.523422 
	C263.743591,241.452789 261.230865,246.125000 256.641693,249.504822 
	C254.032318,251.426590 250.777603,252.472137 247.457092,253.963364 
	C247.322891,253.197372 247.545074,252.380310 248.184479,251.067108 
	C250.423569,249.528748 252.187653,248.364868 254.078033,247.466812 
	C259.940979,244.681564 262.796875,238.943787 259.092560,235.995407 
	C252.963623,231.117188 247.756165,223.441818 237.975754,226.013199 
	C235.430862,223.530975 232.885986,221.048752 230.204117,218.262238 
z"/>
<path fill="#70ECF5" opacity="1.000000" stroke="none" 
	d="
M238.098511,226.331924 
	C247.756165,223.441818 252.963623,231.117188 259.092560,235.995407 
	C262.796875,238.943787 259.940979,244.681564 254.078033,247.466812 
	C252.187653,248.364868 250.423569,249.528748 248.335754,250.776245 
	C248.638824,241.312057 243.544022,233.935211 238.098511,226.331924 
z"/>
<path fill="#55D9F2" opacity="1.000000" stroke="none" 
	d="
M220.041992,251.709381 
	C219.706268,251.570953 219.366119,251.135925 218.987991,250.415955 
	C219.312531,250.558273 219.675064,250.985519 220.041992,251.709381 
z"/>
<path fill="#63E5F5" opacity="1.000000" stroke="none" 
	d="
M227.939240,216.300110 
	C228.106033,216.241211 228.419922,216.400711 228.859222,216.798431 
	C228.685211,216.863953 228.385773,216.691238 227.939240,216.300110 
z"/>
<path fill="#49D0EF" opacity="1.000000" stroke="none" 
	d="
M230.636993,191.032928 
	C230.683502,194.155731 233.406204,194.379700 235.664459,195.419403 
	C243.983444,199.249481 252.346344,203.030060 260.391632,207.385452 
	C263.475983,209.055191 265.751648,212.218765 268.697296,214.850830 
	C269.172699,215.554810 269.346588,216.109604 269.763733,216.835571 
	C268.255127,218.005615 266.503265,219.004517 264.379211,220.004150 
	C256.007721,209.187958 243.707184,206.092148 231.903427,202.088898 
	C230.670792,201.670853 229.521347,201.007507 228.109528,200.161926 
	C228.721893,197.018112 229.558044,194.170364 230.636993,191.032928 
z"/>
</svg>
